<mxfile host="Electron" modified="2024-08-23T11:09:49.373Z" agent="Mozilla/5.0 (Windows NT 10.0; Win64; x64) AppleWebKit/537.36 (KHTML, like Gecko) draw.io/22.0.3 Chrome/114.0.5735.289 Electron/25.8.4 Safari/537.36" etag="VZI5wfBUPepcqKpxqGLB" version="22.0.3" type="device">
  <diagram name="Seite-1" id="0yb0ZHX9jofEM6catf-A">
    <mxGraphModel dx="3742" dy="2160" grid="1" gridSize="10" guides="1" tooltips="1" connect="1" arrows="1" fold="1" page="1" pageScale="1" pageWidth="827" pageHeight="1169" math="0" shadow="0">
      <root>
        <mxCell id="0" />
        <mxCell id="1" parent="0" />
        <mxCell id="AfagKAXUVI6aSoaYIEJa-8" value="" style="edgeStyle=orthogonalEdgeStyle;rounded=0;orthogonalLoop=1;jettySize=auto;html=1;" parent="1" source="AfagKAXUVI6aSoaYIEJa-1" target="AfagKAXUVI6aSoaYIEJa-2" edge="1">
          <mxGeometry relative="1" as="geometry">
            <mxPoint x="330" y="390" as="sourcePoint" />
            <mxPoint x="330" y="540" as="targetPoint" />
          </mxGeometry>
        </mxCell>
        <mxCell id="AfagKAXUVI6aSoaYIEJa-7" value="Depot-Resource" style="swimlane;horizontal=0;whiteSpace=wrap;html=1;" parent="1" vertex="1">
          <mxGeometry x="130" y="480" width="930" height="200" as="geometry" />
        </mxCell>
        <mxCell id="AfagKAXUVI6aSoaYIEJa-2" value="&amp;lt;&amp;lt;fun&amp;gt;&amp;gt;&lt;br&gt;insert" style="rounded=0;whiteSpace=wrap;html=1;" parent="AfagKAXUVI6aSoaYIEJa-7" vertex="1">
          <mxGeometry x="110" y="60" width="280" height="100" as="geometry" />
        </mxCell>
        <mxCell id="AfagKAXUVI6aSoaYIEJa-9" value="Client" style="swimlane;horizontal=0;whiteSpace=wrap;html=1;" parent="1" vertex="1">
          <mxGeometry x="130" y="230" width="930" height="200" as="geometry" />
        </mxCell>
        <mxCell id="AfagKAXUVI6aSoaYIEJa-1" value="post /transactions" style="rounded=0;whiteSpace=wrap;html=1;" parent="AfagKAXUVI6aSoaYIEJa-9" vertex="1">
          <mxGeometry x="110" y="50" width="280" height="100" as="geometry" />
        </mxCell>
        <mxCell id="AfagKAXUVI6aSoaYIEJa-10" value="Kafka-Processor" style="swimlane;horizontal=0;whiteSpace=wrap;html=1;" parent="1" vertex="1">
          <mxGeometry x="130" y="720" width="930" height="200" as="geometry" />
        </mxCell>
        <mxCell id="AfagKAXUVI6aSoaYIEJa-14" value="&amp;lt;&amp;lt;fun&amp;gt;&amp;gt;&lt;br&gt;send()" style="rounded=0;whiteSpace=wrap;html=1;" parent="AfagKAXUVI6aSoaYIEJa-10" vertex="1">
          <mxGeometry x="110" y="50" width="280" height="100" as="geometry" />
        </mxCell>
        <mxCell id="AfagKAXUVI6aSoaYIEJa-11" value="Kafka-Topic" style="swimlane;horizontal=0;whiteSpace=wrap;html=1;" parent="1" vertex="1">
          <mxGeometry x="130" y="1220" width="930" height="200" as="geometry" />
        </mxCell>
        <mxCell id="AfagKAXUVI6aSoaYIEJa-4" value="&lt;div style=&quot;&quot;&gt;&lt;pre style=&quot;&quot;&gt;&lt;span style=&quot;background-color: rgb(255, 255, 255);&quot;&gt;&lt;font face=&quot;Helvetica&quot;&gt;update-depot-value&lt;/font&gt;&lt;/span&gt;&lt;/pre&gt;&lt;/div&gt;" style="rounded=0;whiteSpace=wrap;html=1;" parent="AfagKAXUVI6aSoaYIEJa-11" vertex="1">
          <mxGeometry x="270" y="50" width="280" height="100" as="geometry" />
        </mxCell>
        <mxCell id="AfagKAXUVI6aSoaYIEJa-19" value="transaction&lt;br&gt;database" style="shape=datastore;whiteSpace=wrap;html=1;" parent="1" vertex="1">
          <mxGeometry x="1151" y="500" width="100" height="110" as="geometry" />
        </mxCell>
        <mxCell id="AfagKAXUVI6aSoaYIEJa-20" value="" style="endArrow=classic;html=1;rounded=0;exitX=1;exitY=0.25;exitDx=0;exitDy=0;entryX=-0.023;entryY=0.599;entryDx=0;entryDy=0;entryPerimeter=0;" parent="1" source="AfagKAXUVI6aSoaYIEJa-2" target="AfagKAXUVI6aSoaYIEJa-19" edge="1">
          <mxGeometry width="50" height="50" relative="1" as="geometry">
            <mxPoint x="650" y="770" as="sourcePoint" />
            <mxPoint x="1080" y="570" as="targetPoint" />
          </mxGeometry>
        </mxCell>
        <mxCell id="u5zBCeCKhTnqwnaylfas-1" style="edgeStyle=orthogonalEdgeStyle;rounded=0;orthogonalLoop=1;jettySize=auto;html=1;" parent="1" source="AfagKAXUVI6aSoaYIEJa-2" target="AfagKAXUVI6aSoaYIEJa-14" edge="1">
          <mxGeometry relative="1" as="geometry" />
        </mxCell>
        <mxCell id="u5zBCeCKhTnqwnaylfas-2" value="send" style="edgeStyle=orthogonalEdgeStyle;rounded=0;orthogonalLoop=1;jettySize=auto;html=1;entryX=0;entryY=0.5;entryDx=0;entryDy=0;" parent="1" source="AfagKAXUVI6aSoaYIEJa-14" target="AfagKAXUVI6aSoaYIEJa-4" edge="1">
          <mxGeometry relative="1" as="geometry" />
        </mxCell>
        <mxCell id="u5zBCeCKhTnqwnaylfas-3" value="Depot-Messaging-Processor" style="swimlane;horizontal=0;whiteSpace=wrap;html=1;" parent="1" vertex="1">
          <mxGeometry x="130" y="960" width="930" height="200" as="geometry" />
        </mxCell>
        <mxCell id="u5zBCeCKhTnqwnaylfas-12" value="" style="edgeStyle=orthogonalEdgeStyle;rounded=0;orthogonalLoop=1;jettySize=auto;html=1;" parent="u5zBCeCKhTnqwnaylfas-3" source="u5zBCeCKhTnqwnaylfas-5" target="u5zBCeCKhTnqwnaylfas-11" edge="1">
          <mxGeometry relative="1" as="geometry">
            <Array as="points">
              <mxPoint x="640" y="80" />
              <mxPoint x="640" y="80" />
            </Array>
          </mxGeometry>
        </mxCell>
        <mxCell id="u5zBCeCKhTnqwnaylfas-5" value="&amp;lt;&amp;lt;fun&amp;gt;&amp;gt;&lt;br&gt;handleUpdateDepotValueFromKafkEmitterById()" style="rounded=0;whiteSpace=wrap;html=1;" parent="u5zBCeCKhTnqwnaylfas-3" vertex="1">
          <mxGeometry x="270" y="30" width="280" height="100" as="geometry" />
        </mxCell>
        <mxCell id="u5zBCeCKhTnqwnaylfas-11" value="&amp;lt;&amp;lt;fun&amp;gt;&amp;gt;&lt;br&gt;updateDepositValueByDepotId()" style="rounded=0;whiteSpace=wrap;html=1;" parent="u5zBCeCKhTnqwnaylfas-3" vertex="1">
          <mxGeometry x="610" y="30" width="280" height="100" as="geometry" />
        </mxCell>
        <mxCell id="u5zBCeCKhTnqwnaylfas-6" style="edgeStyle=orthogonalEdgeStyle;rounded=0;orthogonalLoop=1;jettySize=auto;html=1;" parent="1" source="u5zBCeCKhTnqwnaylfas-5" target="AfagKAXUVI6aSoaYIEJa-4" edge="1">
          <mxGeometry relative="1" as="geometry">
            <Array as="points">
              <mxPoint x="450" y="1120" />
              <mxPoint x="450" y="1120" />
            </Array>
          </mxGeometry>
        </mxCell>
        <mxCell id="u5zBCeCKhTnqwnaylfas-7" value="create" style="edgeLabel;html=1;align=center;verticalAlign=middle;resizable=0;points=[];" parent="u5zBCeCKhTnqwnaylfas-6" vertex="1" connectable="0">
          <mxGeometry x="0.1184" relative="1" as="geometry">
            <mxPoint as="offset" />
          </mxGeometry>
        </mxCell>
        <mxCell id="u5zBCeCKhTnqwnaylfas-8" style="edgeStyle=orthogonalEdgeStyle;rounded=0;orthogonalLoop=1;jettySize=auto;html=1;" parent="1" source="AfagKAXUVI6aSoaYIEJa-4" target="u5zBCeCKhTnqwnaylfas-5" edge="1">
          <mxGeometry relative="1" as="geometry">
            <Array as="points">
              <mxPoint x="620" y="1120" />
              <mxPoint x="620" y="1120" />
            </Array>
          </mxGeometry>
        </mxCell>
        <mxCell id="u5zBCeCKhTnqwnaylfas-9" value="receive" style="edgeLabel;html=1;align=center;verticalAlign=middle;resizable=0;points=[];" parent="u5zBCeCKhTnqwnaylfas-8" vertex="1" connectable="0">
          <mxGeometry x="0.2724" relative="1" as="geometry">
            <mxPoint as="offset" />
          </mxGeometry>
        </mxCell>
        <mxCell id="u5zBCeCKhTnqwnaylfas-13" value="depot&lt;br&gt;database" style="shape=datastore;whiteSpace=wrap;html=1;" parent="1" vertex="1">
          <mxGeometry x="1156" y="985" width="104" height="110" as="geometry" />
        </mxCell>
        <mxCell id="SmFsImegpVHGsIubwJMA-1" style="edgeStyle=orthogonalEdgeStyle;rounded=0;orthogonalLoop=1;jettySize=auto;html=1;entryX=0;entryY=0.5;entryDx=0;entryDy=0;" edge="1" parent="1" source="u5zBCeCKhTnqwnaylfas-11" target="u5zBCeCKhTnqwnaylfas-13">
          <mxGeometry relative="1" as="geometry" />
        </mxCell>
      </root>
    </mxGraphModel>
  </diagram>
</mxfile>
